<?xml version="1.0" encoding="UTF-8"?>
<svg xmlns="http://www.w3.org/2000/svg" xmlns:xlink="http://www.w3.org/1999/xlink" version="1.1" id="Layer_1" x="0px" y="0px" width="100px" height="100px" viewBox="0 0 100 100" enable-background="new 0 0 100 100" xml:space="preserve">
    <desc>Question Mark</desc>
    <g transform="scale(2.25) translate(-12, -12)">
        <path d="M 32.556352,39.001552 C 32.692224,35.831202 33.099844,35.061254 35.907868,32.887299 C 39.395254,30.215147 39.802874,29.898109 40.119909,29.626364 C 41.705085,28.267643 42.610901,26.184264 42.610901,24.010310 C 42.610901,19.073621 38.625308,15.948554 32.284607,15.948554 C 26.306232,15.948554 22.094185,18.847167 22.094185,23.013913 C 22.094185,25.459612 23.905818,27.225954 26.396808,27.225954 C 28.706635,27.225954 30.291814,25.731356 30.291814,23.602693 C 30.291814,22.379843 29.793614,21.383445 28.842509,20.658793 C 28.027276,20.024723 27.981985,19.979431 27.981985,19.662396 C 27.981985,19.028326 28.978383,18.530127 30.382395,18.530127 C 33.099838,18.530127 34.639727,20.341761 34.639727,23.512111 C 34.639727,25.369031 33.960364,27.678863 32.828096,29.716946 C 30.337107,34.155436 29.974778,35.061258 29.974778,37.099340 C 29.974778,37.552247 30.020069,38.276901 30.110651,39.001552 L 32.556352,39.001552 M 31.424083,41.492544 C 29.068965,41.492544 27.166751,43.394759 27.166751,45.749876 C 27.166751,48.059703 29.068965,50.007208 31.378792,50.007208 C 33.779200,50.007208 35.681415,48.104994 35.681415,45.749876 C 35.681415,43.394759 33.779200,41.492544 31.424083,41.492544"/>
</g>
</svg>